<svg width="40" height="40" viewBox="0 0 40 40" fill="none" xmlns="http://www.w3.org/2000/svg">
<g clip-path="url(#clip0)">
<path d="M37.3828 2.48145H7.19342C6.99155 2.48145 6.81038 2.6052 6.73694 2.79324L5.14749 6.86198V33.0521C5.14749 33.7781 5.73601 34.3666 6.46202 34.3666H38.1143C38.8403 34.3666 39.4288 33.7781 39.4288 33.0521V6.86198L37.8394 2.79316C37.7659 2.6052 37.5847 2.48145 37.3828 2.48145Z" fill="#927266"/>
<path d="M38.1142 34.3665H6.46202C5.73601 34.3665 5.14749 33.7779 5.14749 33.0519V6.86182H39.4288V33.0519C39.4288 33.7779 38.8402 34.3665 38.1142 34.3665Z" fill="#82635A"/>
<path d="M35.9763 6.86182V30.5304C35.9763 31.7097 35.0204 32.6656 33.8412 32.6656H6.46202C5.73601 32.6656 5.14749 32.0771 5.14749 31.3511V33.0519C5.14749 33.7779 5.73601 34.3665 6.46202 34.3665H38.1143C38.8403 34.3665 39.4288 33.7779 39.4288 33.0519V6.86182H35.9763Z" fill="#72544E"/>
<path d="M24.5432 19.3148C24.7554 20.0052 24.3674 20.7304 23.6842 20.9418L18.0216 22.6945L18.3555 22.8306L22.1343 24.3714L28.3892 26.9218C29.1481 27.2313 29.5124 28.0973 29.203 28.8562C28.8935 29.6151 28.0275 29.9795 27.2686 29.67L28.7192 30.2615C29.4781 30.5709 29.8424 31.4369 29.533 32.1959C29.2235 32.9548 28.3575 33.3191 27.5986 33.0097L26.1481 32.4182C26.8981 32.7241 27.2628 33.5735 26.9724 34.3259C26.673 35.1021 25.7669 35.468 24.9965 35.1538L23.7869 34.6606C24.5458 34.9701 24.9102 35.8361 24.6007 36.595C24.2913 37.3539 23.4253 37.7183 22.6664 37.4088L11.7109 32.9419C10.6344 32.503 9.68779 31.7966 8.96053 30.8897C8.23327 29.9828 7.28663 29.2764 6.21015 28.8375L1.66734 26.9852L4.84249 19.1981L8.77506 20.8017C10.0915 21.3385 23.002 18.4308 23.002 18.4308C23.6657 18.2914 24.344 18.6666 24.5432 19.3148Z" fill="#FED9A8"/>
<path d="M24.5432 19.3148C24.7554 20.0052 24.3674 20.7304 23.6842 20.9418L18.0216 22.6945L18.3555 22.8306L22.1343 24.3714L28.3892 26.9218C29.1481 27.2313 29.5124 28.0973 29.203 28.8562C28.8935 29.6151 28.0275 29.9795 27.2686 29.67L28.7192 30.2615C29.4781 30.5709 29.8424 31.4369 29.533 32.1959C29.2235 32.9548 28.3575 33.3191 27.5986 33.0097L26.1481 32.4182C26.8981 32.7241 27.2628 33.5735 26.9724 34.3259C26.673 35.1021 25.7669 35.468 24.9965 35.1538L23.7869 34.6606C24.5458 34.9701 24.9102 35.8361 24.6007 36.595C24.2913 37.3539 23.4253 37.7183 22.6664 37.4088L11.7109 32.9419C10.6344 32.503 9.68779 31.7966 8.96053 30.8897C8.23327 29.9828 7.28663 29.2764 6.21015 28.8375L1.66734 26.9852L4.84249 19.1981L8.77506 20.8017C10.0915 21.3385 23.002 18.4308 23.002 18.4308C23.6657 18.2914 24.344 18.6666 24.5432 19.3148Z" fill="#FED9A8"/>
<path d="M24.0553 34.8036C23.9517 34.7395 23.8496 34.6864 23.7529 34.6469L18.2001 32.3828C17.9065 33.1028 18.2502 33.9247 18.9689 34.2213L23.3731 36.0391C23.7967 36.2119 24.1302 36.6685 24.2659 37.0945C24.4064 36.9569 24.5216 36.7889 24.6006 36.5952C24.8709 35.9323 24.6271 35.1876 24.0553 34.8036Z" fill="#F4C892"/>
<path d="M26.9724 34.3262C27.2581 33.5856 26.9093 32.7511 26.1832 32.4333C26.1783 32.4312 26.1735 32.4291 26.1685 32.427C26.1676 32.4266 26.1667 32.4262 26.1657 32.4258C26.1624 32.4244 26.159 32.423 26.1557 32.4215C26.1531 32.4205 26.1506 32.4194 26.148 32.4183L26.1484 32.4185C26.1482 32.4184 26.1482 32.4184 26.148 32.4183L19.3208 29.6345C19.0302 30.3473 19.3743 31.1605 20.0882 31.4483L26.148 33.8907C26.4259 34.004 26.6996 34.2833 26.8706 34.537C26.9096 34.4708 26.9438 34.4004 26.9724 34.3262Z" fill="#F4C892"/>
<path d="M29.0334 29.1634C29.1004 29.0701 29.1577 28.9675 29.203 28.8564C29.5124 28.0975 29.1481 27.2314 28.3892 26.922L22.1343 24.3715L18.3555 22.8308L18.0216 22.6946C18.8648 24.1553 20.1702 25.2938 21.7319 25.9306L28.3892 28.6451C28.7132 28.8122 28.8989 28.9948 29.0334 29.1634Z" fill="#F4C892"/>
<path d="M28.7191 30.2617L20.4414 26.8865C20.1393 27.6274 20.4957 28.473 21.2372 28.7739L28.7191 31.8102C28.9349 31.8982 29.1855 32.2205 29.3699 32.4938C29.4341 32.403 29.4891 32.3036 29.5328 32.1962C29.8423 31.4372 29.478 30.5712 28.7191 30.2617Z" fill="#F4C892"/>
<path d="M4.36437 18.0528C4.48234 17.7634 4.81257 17.6245 5.10195 17.7425L8.16983 18.9934C8.45921 19.1114 8.59811 19.4416 8.48014 19.731L4.7289 28.931C4.61093 29.2204 4.2807 29.3593 3.99133 29.2414L0.92344 27.9904C0.634066 27.8725 0.49516 27.5422 0.613128 27.2528L4.36437 18.0528Z" fill="#2D5872"/>
<path d="M8.1699 18.9933L6.84639 18.4536L3.34538 27.0397C3.22741 27.3291 2.89717 27.468 2.60772 27.35L0.863349 26.6388L0.613037 27.2527C0.495068 27.542 0.633974 27.8723 0.923349 27.9903L3.99123 29.2413C4.28061 29.3592 4.61084 29.2203 4.72889 28.9309L8.48021 19.7309C8.59818 19.4415 8.45927 19.1113 8.1699 18.9933Z" fill="#1D4859"/>
<path d="M25.1657 2.48145H19.4105L18.3969 6.86198V16.115C18.3969 16.3677 18.6952 16.5019 18.8843 16.3344L22.0938 13.4911C22.2047 13.3928 22.3715 13.3928 22.4825 13.4911L25.6919 16.3344C25.881 16.502 26.1793 16.3677 26.1793 16.115V6.86198L25.1657 2.48145Z" fill="#FFB125"/>
<path d="M25.692 16.3342L22.4825 13.4909C22.3716 13.3927 22.2048 13.3927 22.0939 13.4909L18.8844 16.3342C18.6953 16.5017 18.397 16.3675 18.397 16.1148V6.86182H26.1795V16.1148C26.1793 16.3675 25.8811 16.5017 25.692 16.3342Z" fill="#FF901D"/>
<path d="M23.4148 35.5764L23.4138 35.5754V35.5764H23.4148Z" fill="#FED9A8"/>
<path d="M28.3004 1.91016H5.19303C4.75272 1.91016 4.36475 2.17516 4.20452 2.58531L2.61507 6.65405C2.61389 6.6571 2.61327 6.66022 2.6121 6.66319C2.60616 6.67905 2.601 6.69522 2.59647 6.71179C2.59483 6.7178 2.59327 6.72374 2.59186 6.72976C2.58827 6.74499 2.58538 6.76046 2.58303 6.77608C2.5821 6.78233 2.58093 6.78858 2.58014 6.79483C2.57819 6.81186 2.5771 6.82905 2.57663 6.84647C2.57655 6.85085 2.576 6.85522 2.57593 6.85968C2.57593 6.86038 2.57585 6.86108 2.57585 6.86179V15.2532C2.57585 15.5686 2.83155 15.8243 3.14702 15.8243C3.46249 15.8243 3.71819 15.5686 3.71819 15.2532V7.43304H15.8254V16.1149C15.8254 16.4544 16.0254 16.7638 16.335 16.9031C16.4483 16.9541 16.569 16.979 16.6889 16.979C16.8964 16.979 17.1017 16.9045 17.2626 16.7618L20.2877 14.0819L23.3128 16.7618C23.5667 16.987 23.931 17.0424 24.2406 16.9031C24.5501 16.7637 24.7501 16.4544 24.7501 16.1149V7.43304H36.8572V33.052C36.8572 33.4618 36.5237 33.7953 36.1138 33.7953H25.641C25.641 33.7888 25.6402 33.7824 25.6401 33.7759C25.6395 33.7246 25.6376 33.6735 25.6332 33.6227C26.6166 33.8834 27.6673 33.378 28.0613 32.4116C28.2686 31.9032 28.2656 31.3446 28.0527 30.8387C28.0326 30.791 28.0105 30.7448 27.9872 30.6992C27.9829 30.6909 27.9788 30.6824 27.9745 30.6742C27.9516 30.6307 27.9272 30.5883 27.9015 30.547C27.8965 30.5389 27.8913 30.5311 27.8863 30.5231C27.8591 30.4807 27.8309 30.4391 27.8008 30.399C27.8003 30.3982 27.7996 30.3975 27.7991 30.3968C27.7692 30.3572 27.7377 30.3191 27.7051 30.2818C27.6992 30.275 27.6933 30.2681 27.6873 30.2613C27.655 30.2254 27.6215 30.1906 27.5868 30.1571C27.58 30.1506 27.5731 30.1442 27.5663 30.1378C27.5299 30.1037 27.4928 30.0705 27.454 30.0392C27.4527 30.0381 27.4513 30.0371 27.45 30.0361C27.4119 30.0054 27.3723 29.9763 27.3319 29.9484C27.3246 29.9433 27.3174 29.9381 27.31 29.9331C27.2696 29.906 27.2282 29.8803 27.1857 29.8558C27.1822 29.8538 27.179 29.8514 27.1754 29.8494C27.4168 29.6405 27.6074 29.3761 27.7314 29.0719C27.9387 28.5635 27.9356 28.0049 27.7228 27.4989C27.5365 27.0562 27.2091 26.7001 26.7897 26.4792C26.7298 26.4476 26.668 26.4188 26.6045 26.3929L17.7149 22.7682L21.8528 21.4874C22.8373 21.1826 23.3917 20.1326 23.0888 19.1469C22.9757 18.7789 22.7516 18.4686 22.4621 18.2418C22.0312 17.9043 21.4553 17.7518 20.8843 17.8718C20.8815 17.8724 20.8789 17.8729 20.8761 17.8736C20.8445 17.8807 17.6723 18.594 14.3593 19.24C14.2123 19.2686 14.0691 19.2963 13.9279 19.3235C13.815 19.3452 13.7036 19.3666 13.5943 19.3874C13.5629 19.3934 13.5314 19.3993 13.5002 19.4053C13.3072 19.4419 13.1203 19.477 12.9386 19.5107C12.8654 19.5243 12.7929 19.5378 12.7216 19.5509C8.56091 20.3174 7.39209 20.3311 7.06771 20.2872C7.06646 20.2871 7.06537 20.2869 7.06412 20.2867C7.0592 20.286 7.05435 20.2853 7.04982 20.2846C7.04654 20.284 7.0435 20.2835 7.04045 20.283C7.03826 20.2826 7.03592 20.2822 7.03381 20.2819C7.01357 20.2782 6.99779 20.2744 6.98561 20.2707L6.89201 20.2326L7.00865 19.9466C7.12334 19.6654 7.12162 19.3563 7.00389 19.0764C6.97443 19.0064 6.93857 18.9403 6.89701 18.8787C6.77232 18.6941 6.596 18.5504 6.38506 18.4643L3.31725 17.2135C3.03608 17.0987 2.72694 17.1005 2.44702 17.2183C2.16702 17.336 1.94975 17.5558 1.83507 17.8369L-1.91625 27.0371C-2.15297 27.6177 -1.87321 28.2825 -1.29266 28.5193L1.77522 29.7703C1.9153 29.8274 2.06022 29.8544 2.20296 29.8544C2.65163 29.8544 3.07772 29.5871 3.25733 29.1467L3.28553 29.0775L3.99288 29.3659C3.99327 29.366 3.99366 29.3663 3.99413 29.3664C4.67069 29.6423 5.29405 30.0359 5.83358 30.5243C5.9317 30.6131 6.02701 30.7051 6.11943 30.8C6.21186 30.8949 6.30123 30.9929 6.38756 31.0937C6.43068 31.1441 6.47311 31.1953 6.51459 31.2471C7.30076 32.2274 8.33138 32.9963 9.4949 33.4708L10.2907 33.7952H4.46162C4.05178 33.7952 3.71827 33.4617 3.71827 33.0519V31.6067C3.71827 31.2912 3.46256 31.0355 3.1471 31.0355C2.83163 31.0355 2.57593 31.2912 2.57593 31.6067V33.0519C2.57593 34.0917 3.42178 34.9376 4.46162 34.9376H13.0923L20.4502 37.9377C20.7035 38.041 20.9655 38.09 21.2235 38.0899C22.0344 38.0899 22.8046 37.6067 23.1292 36.8107C23.2623 36.4842 23.305 36.143 23.2692 35.8149C23.6519 35.8699 24.0487 35.8195 24.4084 35.6642C24.7739 35.5063 25.0769 35.2548 25.2921 34.9375H36.1139C37.1537 34.9375 37.9996 34.0917 37.9996 33.0518V6.86187C37.9996 6.86116 37.9995 6.86046 37.9995 6.85976C37.9995 6.85538 37.999 6.85101 37.9988 6.84655C37.9984 6.82913 37.9973 6.81194 37.9953 6.79491C37.9945 6.78866 37.9934 6.78241 37.9924 6.77616C37.9901 6.76046 37.9872 6.74499 37.9836 6.72983C37.9822 6.72382 37.9806 6.71788 37.979 6.71187C37.9745 6.69538 37.9693 6.67921 37.9634 6.66327C37.9623 6.66022 37.9616 6.6571 37.9604 6.65413L36.3709 2.58523C36.2107 2.17523 35.8227 1.91023 35.3824 1.91023H32.4884C32.1729 1.91023 31.9172 2.16594 31.9172 2.4814C31.9172 2.79687 32.1729 3.05258 32.4884 3.05258H35.3271L36.592 6.29077H24.6331L23.8838 3.05258H28.3004C28.6159 3.05258 28.8716 2.79687 28.8716 2.4814C28.8716 2.16594 28.6159 1.91016 28.3004 1.91016ZM17.8643 3.0525H22.7113L23.4606 6.29069H17.115L17.8643 3.0525ZM15.9424 6.29069H3.98342L5.24834 3.0525H16.6917L15.9424 6.29069ZM23.6078 15.497L20.8608 13.0634C20.6975 12.9187 20.4926 12.8464 20.2878 12.8464C20.083 12.8464 19.8781 12.9187 19.7147 13.0634L16.9678 15.497V7.43304H23.6079V15.497H23.6078ZM2.20155 28.7104L-0.85649 27.4635L2.89085 18.2733L5.94881 19.5203L2.20155 28.7104ZM25.0204 32.1574L24.3649 31.8901C24.3646 31.8899 24.3642 31.8899 24.3639 31.8897C24.3637 31.8896 24.3635 31.8895 24.3632 31.8894C24.3632 31.8894 24.3631 31.8893 24.363 31.8893L17.536 29.1056C17.2439 28.9866 16.9106 29.1267 16.7914 29.4189C16.6723 29.711 16.8125 30.0444 17.1047 30.1635L23.9319 32.9473C23.9604 32.9589 23.988 32.9718 24.0146 32.986C24.0221 32.9899 24.0291 32.9948 24.0364 32.9989C24.0552 33.0095 24.074 33.0202 24.0917 33.032C24.1003 33.0377 24.1081 33.0442 24.1164 33.0502C24.1321 33.0614 24.1481 33.0725 24.1629 33.0847C24.1719 33.092 24.18 33.1003 24.1887 33.1079C24.202 33.1197 24.2156 33.1311 24.2281 33.1436C24.2367 33.1522 24.2445 33.1617 24.2528 33.1706C24.2642 33.1829 24.276 33.195 24.2868 33.208C24.295 33.2179 24.3022 33.2285 24.31 33.2387C24.3198 33.2515 24.33 33.2641 24.3389 33.2774C24.3465 33.2885 24.353 33.3002 24.36 33.3115C24.3682 33.3246 24.3767 33.3375 24.3842 33.351C24.3909 33.3632 24.3965 33.376 24.4027 33.3884C24.4092 33.4017 24.4164 33.4149 24.4223 33.4285C24.428 33.4417 24.4326 33.4552 24.4377 33.4686C24.4428 33.4821 24.4485 33.4954 24.453 33.5092C24.4575 33.523 24.461 33.5371 24.4648 33.5511C24.4686 33.5649 24.4729 33.5785 24.4761 33.5925C24.4793 33.6067 24.4814 33.621 24.4839 33.6352C24.4865 33.6495 24.4895 33.6635 24.4914 33.6779C24.4932 33.6923 24.4939 33.7068 24.4951 33.7213C24.4963 33.7358 24.498 33.7502 24.4985 33.7648C24.4989 33.7791 24.4982 33.7935 24.4981 33.8079C24.4979 33.8227 24.4982 33.8376 24.4972 33.8525C24.4964 33.8667 24.4942 33.8808 24.4927 33.8949C24.491 33.9102 24.4898 33.9254 24.4873 33.9406C24.485 33.9545 24.4815 33.9683 24.4786 33.9822C24.4753 33.9976 24.4726 34.013 24.4685 34.0283C24.4649 34.0418 24.46 34.0552 24.4557 34.0687C24.4509 34.084 24.4464 34.0993 24.4407 34.1144C24.4359 34.1248 24.4311 34.1352 24.4267 34.1458C24.4257 34.1482 24.4251 34.1507 24.4242 34.1531C24.3349 34.3588 24.1701 34.5224 23.9551 34.6153C23.7184 34.7174 23.4474 34.721 23.2114 34.6248L22.0018 34.1316C21.9962 34.1293 21.9905 34.1277 21.9849 34.1256C21.9792 34.1231 21.9738 34.1201 21.968 34.1177L16.4152 31.8536C16.1229 31.7345 15.7897 31.8747 15.6707 32.1669C15.5515 32.459 15.6918 32.7924 15.9839 32.9115L21.5367 35.1756C21.5426 35.1781 21.5486 35.1798 21.5546 35.182C21.56 35.1843 21.565 35.1872 21.5706 35.1894C22.0366 35.3795 22.2612 35.9132 22.0712 36.3792C21.8811 36.8454 21.3476 37.0701 20.8814 36.8798L13.4208 33.8378C13.4205 33.8377 13.4202 33.8375 13.4199 33.8374L9.92615 32.4128C9.31115 32.162 8.74005 31.8139 8.23591 31.3857C7.93341 31.1288 7.65506 30.8431 7.40568 30.5321C7.15998 30.2258 6.89045 29.9401 6.60045 29.6775C5.9624 29.0999 5.2253 28.6346 4.42537 28.3083C4.4253 28.3083 4.42522 28.3082 4.42514 28.3082L3.71686 28.0195L5.12756 24.5597L6.46068 21.2903L6.55904 21.3304C6.65162 21.3681 6.78365 21.4217 7.13896 21.4351C7.58287 21.4552 8.31724 21.4089 9.63287 21.223C10.5278 21.0966 11.6255 20.9138 12.907 20.678C12.9386 20.6722 12.9699 20.6664 13.0018 20.6606C13.0617 20.6495 13.1222 20.6382 13.183 20.627C13.2303 20.6182 13.2778 20.6093 13.3257 20.6004C13.3802 20.5901 13.435 20.5799 13.4901 20.5695C13.5486 20.5585 13.6079 20.5473 13.6674 20.536C13.715 20.5269 13.7626 20.5179 13.8107 20.5088C13.8833 20.495 13.9572 20.4808 14.0312 20.4666C14.0693 20.4593 14.1071 20.4521 14.1455 20.4447C14.259 20.4229 14.3739 20.4007 14.4909 20.3779C17.7925 19.7357 20.9793 19.021 21.1225 18.9888C21.1368 18.9858 21.151 18.9841 21.1653 18.982C21.5322 18.9277 21.8917 19.1399 21.9969 19.4822C22.0339 19.6025 22.0382 19.7253 22.0149 19.8407C21.9637 20.0949 21.779 20.3142 21.515 20.3958L15.8524 22.1485C15.6218 22.2199 15.4611 22.4282 15.4507 22.6693C15.4402 22.9103 15.5822 23.132 15.8057 23.2231L26.1731 27.4505C26.3989 27.5425 26.5753 27.717 26.6699 27.9417C26.7644 28.1665 26.7658 28.4146 26.6737 28.6403C26.5816 28.8661 26.4072 29.0425 26.1824 29.1371C26.0701 29.1842 25.9519 29.2081 25.8335 29.2089C25.8318 29.2089 25.8301 29.2086 25.8284 29.2086C25.8006 29.2086 25.7728 29.2075 25.7451 29.2049C25.7369 29.2042 25.7288 29.2024 25.7206 29.2015C25.6994 29.1989 25.6782 29.1965 25.6572 29.1924C25.6439 29.1899 25.6308 29.186 25.6176 29.1828C25.6018 29.1791 25.586 29.1759 25.5703 29.1713C25.5542 29.1665 25.5383 29.1602 25.5224 29.1545C25.5097 29.1499 25.4968 29.1462 25.4843 29.1411L18.6565 26.3571C18.3644 26.2379 18.0311 26.3782 17.912 26.6703C17.7929 26.9625 17.9331 27.2958 18.2253 27.4149L26.503 30.7902C26.5595 30.8131 26.6128 30.8413 26.6626 30.8742C26.8119 30.9726 26.9289 31.1128 26.9997 31.2814C27.0824 31.4781 27.0938 31.6926 27.0337 31.8944C27.0251 31.9232 27.015 31.9518 27.0035 31.98C26.9917 32.0092 26.9785 32.0374 26.964 32.0645C26.9303 32.1278 26.8893 32.185 26.8435 32.2371C26.8151 32.2695 26.7847 32.2996 26.7524 32.3273C26.7472 32.3317 26.7425 32.3367 26.7373 32.3409C26.5289 32.5113 26.2502 32.5846 25.9779 32.5296C25.9227 32.5185 25.8678 32.5026 25.8137 32.4806L25.0204 32.1574Z" fill="black"/>
</g>
<defs>
<clipPath id="clip0">
<rect width="40" height="40" fill="white"/>
</clipPath>
</defs>
</svg>
