<svg width="40" height="40" viewBox="0 0 40 40" fill="none" xmlns="http://www.w3.org/2000/svg">
<path d="M31.25 24.375L35.502 28.627C35.9373 29.0623 36.2826 29.5791 36.5182 30.1478C36.7538 30.7165 36.875 31.3261 36.875 31.9416V35.7812C36.875 36.4029 36.6281 36.999 36.1885 37.4385C35.749 37.8781 35.1529 38.125 34.5312 38.125H32.5V33.75H31.25V24.375Z" fill="#FA5D3F"/>
<path d="M9.375 36.25V23.75L16.25 19.375H23.75L30.625 23.75V36.25H9.375Z" fill="#FA5D3F"/>
<path d="M23.75 19.375L20 23.125L16.25 19.375L16.875 16.875H23.125L23.75 19.375Z" fill="#FFD4CF"/>
<path d="M23.3621 17.8236L23.125 16.875H16.875L16.6339 17.8395L18.7378 18.8914C19.1305 19.0878 19.5637 19.1894 20.0028 19.1883C20.4418 19.1872 20.8745 19.0833 21.2662 18.885L23.3621 17.8236Z" fill="#FBB8B0"/>
<path d="M25.9375 9.375H25V6.875H15V9.375H14.0625C13.6481 9.375 13.2507 9.53962 12.9576 9.83265C12.6646 10.1257 12.5 10.5231 12.5 10.9375V11.5625C12.5 11.9769 12.6646 12.3743 12.9576 12.6674C13.2507 12.9604 13.6481 13.125 14.0625 13.125H15V14.1765C15 14.6117 15.1212 15.0384 15.35 15.4087C15.5788 15.7789 15.9062 16.0782 16.2955 16.2728L19.2969 17.7734C19.515 17.8825 19.7557 17.939 19.9996 17.9384C20.2435 17.9378 20.4839 17.8801 20.7015 17.7699L23.7152 16.2438C24.1017 16.0481 24.4263 15.7491 24.6531 15.3799C24.88 15.0108 25 14.5861 25 14.1528V13.125H25.9375C26.3519 13.125 26.7493 12.9604 27.0424 12.6674C27.3354 12.3743 27.5 11.9769 27.5 11.5625V10.9375C27.5 10.5231 27.3354 10.1257 27.0424 9.83265C26.7493 9.53962 26.3519 9.375 25.9375 9.375Z" fill="#FFD4CF"/>
<path d="M16.875 10H18.125V11.25H16.875V10Z" fill="black"/>
<path d="M21.875 10H23.125V11.25H21.875V10Z" fill="black"/>
<path d="M20 15.625C18.9486 15.625 18.125 14.9387 18.125 14.0625H19.375C19.375 14.1727 19.6123 14.375 20 14.375C20.3877 14.375 20.625 14.1727 20.625 14.0625H21.875C21.875 14.9387 21.0514 15.625 20 15.625Z" fill="black"/>
<path d="M18.2813 1.875H21.7188C22.7548 1.875 23.7483 2.28655 24.4809 3.01911C25.2135 3.75168 25.625 4.74525 25.625 5.78125V6.875H14.375V5.78125C14.375 4.74525 14.7865 3.75168 15.5191 3.01911C16.2517 2.28655 17.2452 1.875 18.2813 1.875Z" fill="#FA5D3F"/>
<path d="M23.1958 9.00565L21.7334 8.03073C21.2201 7.68851 20.617 7.50589 20 7.50589C19.383 7.50589 18.7799 7.68851 18.2666 8.03073L16.8042 9.00565C16.5689 9.16253 16.2954 9.2526 16.0129 9.26625C15.7305 9.27991 15.4496 9.21664 15.2002 9.08319C14.9509 8.94975 14.7424 8.75112 14.5971 8.50851C14.4518 8.2659 14.375 7.98839 14.375 7.70558V6.87511L16.9648 5.43636C17.8932 4.92057 18.9378 4.6499 19.9999 4.6499C21.062 4.6499 22.1066 4.92057 23.0351 5.43636L25.625 6.87511V7.70558C25.625 7.98839 25.5482 8.2659 25.4029 8.50851C25.2576 8.75112 25.0491 8.94975 24.7998 9.08319C24.5504 9.21664 24.2695 9.27991 23.9871 9.26625C23.7046 9.2526 23.4311 9.16253 23.1958 9.00565Z" fill="#FAC850"/>
<path d="M8.75 21.875H31.25V38.125H8.75V21.875Z" fill="#FAC850"/>
<path d="M10 33.75H7.5V38.125H14.375C14.375 36.9647 13.9141 35.8519 13.0936 35.0314C12.2731 34.2109 11.1603 33.75 10 33.75Z" fill="#FFD4CF"/>
<path d="M17.5 21.875H22.5V27.5H17.5V21.875Z" fill="#FA7D29"/>
<path d="M17.5 34.375H22.5V38.125H17.5V34.375Z" fill="#FA7D29"/>
<path d="M8.75 24.375L4.49797 28.627C4.06268 29.0623 3.7174 29.5791 3.48182 30.1478C3.24625 30.7165 3.125 31.3261 3.125 31.9416V35.7812C3.125 36.4029 3.37193 36.999 3.81147 37.4385C4.25101 37.8781 4.84715 38.125 5.46875 38.125H7.5V33.75H8.75V24.375Z" fill="#FA5D3F"/>
<path d="M30 33.75H32.5V38.125H25.625C25.625 36.9647 26.0859 35.8519 26.9064 35.0314C27.7269 34.2109 28.8397 33.75 30 33.75Z" fill="#FFD4CF"/>
<path d="M10.625 23.75H11.875V25H10.625V23.75Z" fill="black"/>
<path d="M13.125 23.75H15.625V25H13.125V23.75Z" fill="black"/>
<path d="M10.625 26.25H15.625V27.5H10.625V26.25Z" fill="black"/>
<path d="M26.5625 24.375H28.75V25.9375C28.75 26.3519 28.5854 26.7493 28.2924 27.0424C27.9993 27.3354 27.6019 27.5 27.1875 27.5H25V25.9375C25 25.5231 25.1646 25.1257 25.4576 24.8326C25.7507 24.5396 26.1481 24.375 26.5625 24.375Z" fill="#FFFFFE"/>
<path d="M27.1875 28.125H25C24.8342 28.125 24.6753 28.0592 24.5581 27.9419C24.4408 27.8247 24.375 27.6658 24.375 27.5V25.9375C24.3757 25.3575 24.6063 24.8015 25.0164 24.3914C25.4265 23.9813 25.9825 23.7507 26.5625 23.75H28.75C28.9158 23.75 29.0747 23.8158 29.1919 23.9331C29.3092 24.0503 29.375 24.2092 29.375 24.375V25.9375C29.3743 26.5175 29.1437 27.0735 28.7336 27.4836C28.3235 27.8937 27.7675 28.1243 27.1875 28.125ZM25.625 26.875H27.1875C27.4361 26.8747 27.6744 26.7759 27.8501 26.6001C28.0259 26.4244 28.1247 26.1861 28.125 25.9375V25H26.5625C26.3139 25.0003 26.0756 25.0991 25.8999 25.2749C25.7241 25.4506 25.6253 25.6889 25.625 25.9375V26.875Z" fill="black"/>
<path d="M35.9441 28.1852L33.567 25.808L32.683 26.692L35.0602 29.069C35.4386 29.4454 35.7386 29.893 35.9428 30.3861C36.147 30.8792 36.2515 31.4079 36.25 31.9416V35.7812C36.2495 36.2369 36.0682 36.6738 35.746 36.996C35.4238 37.3182 34.9869 37.4995 34.5312 37.5H33.125V34.375H34.375V33.125H31.875V21.875C31.875 21.7092 31.8092 21.5503 31.6919 21.4331C31.5747 21.3158 31.4158 21.25 31.25 21.25H27.8606L24.2959 18.9815L23.7785 16.9122L23.9973 16.8013C24.4879 16.5547 24.9001 16.1763 25.1876 15.7085C25.4752 15.2406 25.6266 14.7019 25.625 14.1528V13.75H25.9375C26.5175 13.7493 27.0735 13.5187 27.4836 13.1086C27.8937 12.6985 28.1243 12.1425 28.125 11.5625V10.9375C28.1243 10.3657 27.9001 9.81689 27.5002 9.40825C27.1003 8.9996 26.5564 8.76356 25.9848 8.75055C26.1591 8.42981 26.2503 8.07051 26.25 7.70547V5.78125C26.2486 4.57991 25.7708 3.42816 24.9213 2.57868C24.0718 1.7292 22.9201 1.25136 21.7188 1.25H18.2813C17.0799 1.25136 15.9282 1.7292 15.0787 2.57868C14.2292 3.42816 13.7514 4.57991 13.75 5.78125V7.70547C13.7499 8.07055 13.8412 8.42984 14.0156 8.75055C13.4439 8.76346 12.9 8.99946 12.5 9.40811C12.1 9.81677 11.8757 10.3657 11.875 10.9375V11.5625C11.8757 12.1425 12.1063 12.6985 12.5164 13.1086C12.9265 13.5187 13.4825 13.7493 14.0625 13.75H14.375V14.1765C14.3731 14.7282 14.5259 15.2694 14.8159 15.7388C15.106 16.2081 15.5218 16.5867 16.0161 16.8318L16.2166 16.932L15.7041 18.9815L12.1394 21.25H8.75C8.58424 21.25 8.42527 21.3158 8.30806 21.4331C8.19085 21.5503 8.125 21.7092 8.125 21.875V24.1161L5.80805 26.433L6.69196 27.317L8.125 25.8839V33.125H5.625V34.375H6.875V37.5H5.46875C5.01307 37.4995 4.5762 37.3182 4.25399 36.996C3.93177 36.6738 3.75052 36.2369 3.75 35.7812V31.9416C3.74856 31.4079 3.85296 30.8792 4.05718 30.3862C4.26141 29.8931 4.56139 29.4454 4.93977 29.069L5.44188 28.567L4.55813 27.683L4.05594 28.1852C3.56109 28.6773 3.16878 29.2627 2.9017 29.9075C2.63462 30.5523 2.49809 31.2437 2.5 31.9416V35.7812C2.50089 36.5683 2.81396 37.3229 3.37051 37.8795C3.92707 38.436 4.68167 38.7491 5.46875 38.75H34.5312C35.3183 38.7491 36.0729 38.436 36.6295 37.8795C37.186 37.3229 37.4991 36.5683 37.5 35.7812V31.9416C37.5019 31.2437 37.3654 30.5523 37.0983 29.9075C36.8312 29.2627 36.4389 28.6773 35.9441 28.1852ZM18.125 22.5H21.875V26.875H18.125V22.5ZM22.7589 21.25L23.8374 20.1719L25.5323 21.25H22.7589ZM15.4952 8.53203C15.3446 8.45314 15.2187 8.33424 15.1313 8.1884C15.044 8.04257 14.9985 7.87546 15 7.70547V7.24273L17.2682 5.98258C18.1029 5.5153 19.0434 5.26994 20 5.26994C20.9566 5.26994 21.8971 5.5153 22.7318 5.98258L25 7.24273V7.70547C25 7.87515 24.9539 8.04164 24.8667 8.1872C24.7795 8.33275 24.6545 8.45192 24.5049 8.53198C24.3553 8.61204 24.1867 8.65 24.0172 8.64181C23.8478 8.63362 23.6837 8.57958 23.5425 8.48547L22.0802 7.51062C21.4646 7.09867 20.7407 6.87875 20 6.87875C19.2593 6.87875 18.5354 7.09867 17.9198 7.51062L16.4575 8.48547C16.3169 8.58099 16.1527 8.63588 15.9829 8.6441C15.8131 8.65231 15.6443 8.61353 15.4952 8.53203ZM26.875 10.9375V11.5625C26.8747 11.8111 26.7759 12.0494 26.6001 12.2251C26.4244 12.4009 26.1861 12.4997 25.9375 12.5H25.625V10H25.9375C26.1861 10.0003 26.4244 10.0991 26.6001 10.2749C26.7759 10.4506 26.8747 10.6889 26.875 10.9375ZM18.2813 2.5H21.7188C22.5887 2.50097 23.4227 2.84699 24.0379 3.46213C24.653 4.07727 24.999 4.91131 25 5.78125V5.8125L23.3388 4.88992C22.3187 4.3188 21.1691 4.0189 20 4.0189C18.8309 4.0189 17.6814 4.3188 16.6613 4.88992L15 5.8125V5.78125C15.001 4.91131 15.347 4.07727 15.9621 3.46213C16.5773 2.84699 17.4113 2.50097 18.2813 2.5ZM14.0625 12.5C13.8139 12.4997 13.5756 12.4009 13.3999 12.2251C13.2241 12.0494 13.1253 11.8111 13.125 11.5625V10.9375C13.1253 10.6889 13.2241 10.4506 13.3999 10.2749C13.5756 10.0991 13.8139 10.0003 14.0625 10H14.375V12.5H14.0625ZM15.625 14.1765V9.87094C16.1588 9.94833 16.7024 9.82529 17.1509 9.52555L18.6132 8.55062C19.0236 8.27605 19.5062 8.12947 19.9999 8.12947C20.4937 8.12947 20.9763 8.27605 21.3866 8.55062L22.849 9.52555C23.2976 9.82518 23.8411 9.94818 24.375 9.87086V14.1528C24.3759 14.4707 24.2883 14.7826 24.1218 15.0535C23.9554 15.3243 23.7167 15.5434 23.4327 15.6862L20.4191 17.2122C20.2885 17.278 20.1443 17.3125 19.998 17.3129C19.8517 17.3132 19.7073 17.2795 19.5763 17.2144L16.5752 15.7138C16.289 15.5719 16.0483 15.3527 15.8803 15.081C15.7124 14.8093 15.6239 14.4959 15.625 14.1765ZM19.0173 18.3327C19.3229 18.4847 19.6598 18.5634 20.0011 18.5626C20.3425 18.5617 20.679 18.4813 20.9838 18.3277L22.6348 17.4918L23.0579 19.1838L20.9911 21.25H19.0089L16.9421 19.1833L17.3618 17.5047L19.0173 18.3327ZM16.1626 20.1718L17.2411 21.25H14.4677L16.1626 20.1718ZM9.375 22.5H16.875V27.5C16.875 27.6658 16.9409 27.8247 17.0581 27.9419C17.1753 28.0592 17.3342 28.125 17.5 28.125H22.5C22.6658 28.125 22.8247 28.0592 22.9419 27.9419C23.0592 27.8247 23.125 27.6658 23.125 27.5V22.5H30.625V33.125H30C28.7826 33.1266 27.6075 33.5717 26.6944 34.3769C25.7814 35.1821 25.1929 36.2924 25.0391 37.5H23.125V34.375C23.125 34.2092 23.0592 34.0503 22.9419 33.9331C22.8247 33.8158 22.6658 33.75 22.5 33.75H17.5C17.3342 33.75 17.1753 33.8158 17.0581 33.9331C16.9409 34.0503 16.875 34.2092 16.875 34.375V37.5H14.9609C14.8071 36.2924 14.2186 35.1821 13.3056 34.3769C12.3925 33.5717 11.2174 33.1266 10 33.125H9.375V22.5ZM8.125 37.5V34.375H10C10.8859 34.3761 11.7429 34.6904 12.4196 35.2622C13.0963 35.8341 13.549 36.6267 13.6979 37.5H8.125ZM18.125 37.5V35H21.875V37.5H18.125ZM31.875 37.5H26.3021C26.451 36.6267 26.9037 35.8341 27.5804 35.2622C28.2571 34.6904 29.1141 34.3761 30 34.375H31.875V37.5Z" fill="black"/>
</svg>
