<svg width="22" height="22" viewBox="0 0 22 22" fill="none" xmlns="http://www.w3.org/2000/svg">
<path d="M19.4578 2.69292C18.9691 2.15621 18.3889 1.73046 17.7503 1.43999C17.1117 1.14951 16.4272 1 15.7359 1C15.0446 1 14.3601 1.14951 13.7215 1.43999C13.0829 1.73046 12.5026 2.15621 12.0139 2.69292L10.9997 3.80625L9.98554 2.69292C8.99842 1.60932 7.6596 1.00056 6.26361 1.00056C4.86761 1.00056 3.52879 1.60932 2.54168 2.69292C1.55456 3.77652 1 5.24619 1 6.77863C1 8.31107 1.55456 9.78075 2.54168 10.8643L3.55588 11.9777L10.9997 20.1491L18.4436 11.9777L19.4578 10.8643C19.9467 10.3279 20.3346 9.69095 20.5992 8.98991C20.8638 8.28887 21 7.53747 21 6.77863C21 6.0198 20.8638 5.26839 20.5992 4.56735C20.3346 3.86631 19.9467 3.22937 19.4578 2.69292Z" stroke="#F2F2F2" stroke-width="2" stroke-linecap="round" stroke-linejoin="round"/>
</svg>
