<svg width="40" height="40" viewBox="0 0 40 40" fill="none" xmlns="http://www.w3.org/2000/svg">
<path d="M14.375 25.625H38.125V30.4688C38.125 30.676 38.0427 30.8747 37.8962 31.0212C37.7497 31.1677 37.551 31.25 37.3438 31.25H14.375V25.625Z" fill="#FA5D3F"/>
<path d="M3.4375 21.25H14.375V31.25H2.65625C2.44905 31.25 2.25034 31.1677 2.10382 31.0212C1.95731 30.8747 1.875 30.676 1.875 30.4688V22.8125C1.875 22.3981 2.03962 22.0007 2.33265 21.7076C2.62567 21.4146 3.0231 21.25 3.4375 21.25Z" fill="#FA5D3F"/>
<path d="M14.375 21.25H3.125L7.42305 15.3402C7.64048 15.0413 7.92555 14.798 8.25498 14.6302C8.5844 14.4625 8.94884 14.375 9.31852 14.375H14.375V21.25Z" fill="#FFF9F7"/>
<path d="M15.1562 8.125H37.3438C37.551 8.125 37.7497 8.20731 37.8962 8.35382C38.0427 8.50034 38.125 8.69905 38.125 8.90625V25.625H14.375V8.90625C14.375 8.69905 14.4573 8.50034 14.6038 8.35382C14.7503 8.20731 14.949 8.125 15.1562 8.125Z" fill="#FAC850"/>
<path d="M8.125 35.625C10.1961 35.625 11.875 33.9461 11.875 31.875C11.875 29.8039 10.1961 28.125 8.125 28.125C6.05393 28.125 4.375 29.8039 4.375 31.875C4.375 33.9461 6.05393 35.625 8.125 35.625Z" fill="#4D4D4D"/>
<path d="M31.875 35.625C33.9461 35.625 35.625 33.9461 35.625 31.875C35.625 29.8039 33.9461 28.125 31.875 28.125C29.8039 28.125 28.125 29.8039 28.125 31.875C28.125 33.9461 29.8039 35.625 31.875 35.625Z" fill="#4D4D4D"/>
<path d="M14.375 14.375H9.375L11.643 10.9729C11.7144 10.8659 11.8111 10.7781 11.9245 10.7174C12.0379 10.6567 12.1645 10.625 12.2931 10.625H14.375V14.375Z" fill="#FA5D3F"/>
<path d="M10 23.125H12.5V24.375H10V23.125Z" fill="black"/>
<path d="M3.4375 26.25H1.875V22.8125C1.875 22.3981 2.03962 22.0007 2.33265 21.7076C2.62567 21.4146 3.0231 21.25 3.4375 21.25H5V24.6875C5 25.1019 4.83538 25.4993 4.54235 25.7924C4.24933 26.0854 3.8519 26.25 3.4375 26.25Z" fill="#FAC850"/>
<path d="M38.75 13.125V8.90625C38.7496 8.53342 38.6013 8.17599 38.3376 7.91236C38.074 7.64873 37.7166 7.50043 37.3438 7.5H15.1562C14.7834 7.50043 14.426 7.64873 14.1624 7.91236C13.8987 8.17599 13.7504 8.53342 13.75 8.90625V10H12.2931C12.0616 9.99976 11.8335 10.0568 11.6294 10.1661C11.4252 10.2754 11.2513 10.4334 11.123 10.6263L9.03125 13.7641C8.61371 13.8053 8.2096 13.9343 7.84536 14.1426C7.48113 14.3508 7.165 14.6337 6.91766 14.9726L5.74453 16.5855L6.75547 17.3208L7.92844 15.7079C8.08818 15.4889 8.2973 15.3107 8.53883 15.1877C8.78035 15.0647 9.04748 15.0004 9.31852 15H13.75V20.625H4.35234L6.13047 18.1802L5.11953 17.4448L2.71875 20.7464C2.29003 20.8961 1.91842 21.1754 1.6553 21.5455C1.39218 21.9156 1.25055 22.3584 1.25 22.8125V30.4688C1.25043 30.8416 1.39873 31.199 1.66236 31.4626C1.92599 31.7263 2.28342 31.8746 2.65625 31.875H3.75C3.75 33.0353 4.21094 34.1481 5.03141 34.9686C5.85188 35.7891 6.96468 36.25 8.125 36.25C9.28532 36.25 10.3981 35.7891 11.2186 34.9686C12.0391 34.1481 12.5 33.0353 12.5 31.875H27.5C27.5 33.0353 27.9609 34.1481 28.7814 34.9686C29.6019 35.7891 30.7147 36.25 31.875 36.25C33.0353 36.25 34.1481 35.7891 34.9686 34.9686C35.7891 34.1481 36.25 33.0353 36.25 31.875H37.3438C37.7166 31.8746 38.074 31.7263 38.3376 31.4626C38.6013 31.199 38.7496 30.8416 38.75 30.4688V14.375H37.5V25H15V8.90625C15 8.86481 15.0165 8.82507 15.0458 8.79576C15.0751 8.76646 15.1148 8.75 15.1562 8.75H37.3438C37.3852 8.75 37.4249 8.76646 37.4542 8.79576C37.4835 8.82507 37.5 8.86481 37.5 8.90625V13.125H38.75ZM10.5428 13.75L12.1631 11.3196C12.1774 11.2982 12.1967 11.2806 12.2194 11.2685C12.2421 11.2564 12.2674 11.25 12.2931 11.25H13.75V13.75H10.5428ZM2.5 22.8125C2.50027 22.5639 2.59913 22.3256 2.77488 22.1499C2.95064 21.9741 3.18894 21.8753 3.4375 21.875H4.375V24.6875C4.37473 24.9361 4.27587 25.1744 4.10012 25.3501C3.92436 25.5259 3.68606 25.6247 3.4375 25.625H2.5V22.8125ZM8.125 35C7.50693 35 6.90275 34.8167 6.38884 34.4733C5.87494 34.13 5.4744 33.6419 5.23788 33.0709C5.00135 32.4999 4.93947 31.8715 5.06005 31.2653C5.18062 30.6592 5.47825 30.1023 5.91529 29.6653C6.35233 29.2283 6.90915 28.9306 7.51534 28.81C8.12153 28.6895 8.74987 28.7514 9.32089 28.9879C9.8919 29.2244 10.38 29.6249 10.7233 30.1388C11.0667 30.6527 11.25 31.2569 11.25 31.875C11.2491 32.7035 10.9195 33.4978 10.3337 34.0837C9.74783 34.6695 8.95352 34.9991 8.125 35ZM12.3181 30.625C12.0488 29.7221 11.4952 28.9303 10.7397 28.3672C9.98425 27.8042 9.06721 27.5001 8.125 27.5001C7.18279 27.5001 6.26575 27.8042 5.51026 28.3672C4.75478 28.9303 4.2012 29.7221 3.93187 30.625H2.65625C2.61481 30.625 2.57507 30.6085 2.54576 30.5792C2.51646 30.5499 2.5 30.5102 2.5 30.4688V26.875H3.4375C4.01746 26.8743 4.57347 26.6437 4.98357 26.2336C5.39366 25.8235 5.62434 25.2675 5.625 24.6875V21.875H13.75V30.625H12.3181ZM31.875 35C31.2569 35 30.6527 34.8167 30.1388 34.4733C29.6249 34.13 29.2244 33.6419 28.9879 33.0709C28.7514 32.4999 28.6895 31.8715 28.81 31.2653C28.9306 30.6592 29.2283 30.1023 29.6653 29.6653C30.1023 29.2283 30.6592 28.9306 31.2653 28.81C31.8715 28.6895 32.4999 28.7514 33.0709 28.9879C33.6419 29.2244 34.13 29.6249 34.4733 30.1388C34.8167 30.6527 35 31.2569 35 31.875C34.9991 32.7035 34.6695 33.4978 34.0837 34.0837C33.4978 34.6695 32.7035 34.9991 31.875 35ZM37.5 26.25V30.4688C37.5 30.5102 37.4835 30.5499 37.4542 30.5792C37.4249 30.6085 37.3852 30.625 37.3438 30.625H36.0681C35.7988 29.7221 35.2452 28.9303 34.4897 28.3672C33.7342 27.8042 32.8172 27.5001 31.875 27.5001C30.9328 27.5001 30.0158 27.8042 29.2603 28.3672C28.5048 28.9303 27.9512 29.7221 27.6819 30.625H15V26.25H37.5Z" fill="black"/>
<path d="M24.9003 22.1215C22.9118 20.673 21.5548 18.5169 21.1088 16.0975L20.6406 13.125L26.2578 10.6204L31.875 13.125L31.402 16.1223C30.9524 18.5624 29.5759 20.7337 27.561 22.1815L26.2628 23.1251L24.9003 22.1215Z" fill="#9FDC6E"/>
<path d="M26.2628 23.75C26.1294 23.7501 25.9995 23.7074 25.8922 23.6282L24.5297 22.625C22.4127 21.0822 20.9682 18.786 20.4939 16.2097C20.493 16.2048 20.4922 16.1999 20.4915 16.195L20.0232 13.2224C20.0018 13.0866 20.0258 12.9476 20.0914 12.8268C20.157 12.706 20.2606 12.6103 20.3861 12.5543L26.0033 10.0495C26.0834 10.0138 26.1701 9.99536 26.2578 9.99536C26.3455 9.99536 26.4322 10.0138 26.5123 10.0495L32.1295 12.5543C32.2551 12.6103 32.3587 12.7061 32.4243 12.8269C32.4898 12.9477 32.5138 13.0868 32.4923 13.2226L32.0193 16.2198C32.0185 16.2246 32.0177 16.2295 32.0168 16.2343C31.5388 18.8327 30.0737 21.1452 27.9285 22.6874L26.6303 23.6312C26.5234 23.7086 26.3948 23.7502 26.2628 23.75ZM21.7251 15.9928C22.1441 18.2524 23.413 20.2656 25.2709 21.6182L26.2652 22.3506L27.1935 21.6758C29.0761 20.3237 30.3632 18.2963 30.7858 16.0173L31.183 13.5006L26.2578 11.3047L21.3325 13.5009L21.7251 15.9928Z" fill="black"/>
<path d="M25.6257 18.7501C25.5436 18.7501 25.4623 18.734 25.3865 18.7026C25.3107 18.6712 25.2418 18.6251 25.1838 18.5669L23.3088 16.6919L24.1926 15.8081L25.6257 17.2412L28.9338 13.9331L29.8176 14.8169L26.0676 18.5669C26.0097 18.6251 25.9408 18.6712 25.865 18.7026C25.7891 18.734 25.7078 18.7502 25.6257 18.7501Z" fill="black"/>
<path d="M16.25 10H17.5V11.25H16.25V10Z" fill="black"/>
<path d="M16.25 22.5H17.5V23.75H16.25V22.5Z" fill="black"/>
<path d="M35 10H36.25V11.25H35V10Z" fill="black"/>
<path d="M35 22.5H36.25V23.75H35V22.5Z" fill="black"/>
<path d="M8.125 33.125C8.81536 33.125 9.375 32.5654 9.375 31.875C9.375 31.1846 8.81536 30.625 8.125 30.625C7.43464 30.625 6.875 31.1846 6.875 31.875C6.875 32.5654 7.43464 33.125 8.125 33.125Z" fill="#FEFEFE"/>
<path d="M8.125 33.75C7.75416 33.75 7.39165 33.64 7.08331 33.434C6.77496 33.228 6.53464 32.9351 6.39273 32.5925C6.25081 32.2499 6.21368 31.8729 6.28603 31.5092C6.35838 31.1455 6.53695 30.8114 6.79918 30.5492C7.0614 30.287 7.39549 30.1084 7.75921 30.036C8.12292 29.9637 8.49992 30.0008 8.84253 30.1427C9.18514 30.2846 9.47798 30.525 9.684 30.8333C9.89003 31.1416 10 31.5042 10 31.875C9.99944 32.3721 9.80172 32.8487 9.45021 33.2002C9.0987 33.5517 8.62211 33.7494 8.125 33.75ZM8.125 31.25C8.00139 31.25 7.88055 31.2867 7.77777 31.3553C7.67499 31.424 7.59488 31.5216 7.54758 31.6358C7.50027 31.75 7.48789 31.8757 7.51201 31.9969C7.53612 32.1182 7.59565 32.2295 7.68306 32.3169C7.77047 32.4044 7.88183 32.4639 8.00307 32.488C8.12431 32.5121 8.24997 32.4997 8.36418 32.4524C8.47838 32.4051 8.57599 32.325 8.64467 32.2222C8.71334 32.1195 8.75 31.9986 8.75 31.875C8.74981 31.7093 8.68391 31.5504 8.56674 31.4333C8.44957 31.3161 8.2907 31.2502 8.125 31.25Z" fill="black"/>
<path d="M31.875 33.125C32.5654 33.125 33.125 32.5654 33.125 31.875C33.125 31.1846 32.5654 30.625 31.875 30.625C31.1846 30.625 30.625 31.1846 30.625 31.875C30.625 32.5654 31.1846 33.125 31.875 33.125Z" fill="#FEFEFE"/>
<path d="M31.875 33.75C31.5042 33.75 31.1417 33.64 30.8333 33.434C30.525 33.228 30.2846 32.9351 30.1427 32.5925C30.0008 32.2499 29.9637 31.8729 30.036 31.5092C30.1084 31.1455 30.287 30.8114 30.5492 30.5492C30.8114 30.287 31.1455 30.1084 31.5092 30.036C31.8729 29.9637 32.2499 30.0008 32.5925 30.1427C32.9351 30.2846 33.228 30.525 33.434 30.8333C33.64 31.1416 33.75 31.5042 33.75 31.875C33.7494 32.3721 33.5517 32.8487 33.2002 33.2002C32.8487 33.5517 32.3721 33.7494 31.875 33.75ZM31.875 31.25C31.7514 31.25 31.6306 31.2867 31.5278 31.3553C31.425 31.424 31.3449 31.5216 31.2976 31.6358C31.2503 31.75 31.2379 31.8757 31.262 31.9969C31.2861 32.1182 31.3457 32.2295 31.4331 32.3169C31.5205 32.4044 31.6318 32.4639 31.7531 32.488C31.8743 32.5121 32 32.4997 32.1142 32.4524C32.2284 32.4051 32.326 32.325 32.3947 32.2222C32.4634 32.1195 32.5 31.9986 32.5 31.875C32.4998 31.7093 32.4339 31.5504 32.3167 31.4333C32.1996 31.3161 32.0407 31.2502 31.875 31.25Z" fill="black"/>
<path d="M1.25 10H6.25V11.25H1.25V10Z" fill="black"/>
<path d="M7.5 10H8.75V11.25H7.5V10Z" fill="black"/>
<path d="M6.875 3.75H16.875V5H6.875V3.75Z" fill="black"/>
<path d="M18.125 3.75H19.375V5H18.125V3.75Z" fill="black"/>
<path d="M23.75 5H33.75V6.25H23.75V5Z" fill="black"/>
<path d="M35 5H36.25V6.25H35V5Z" fill="black"/>
<path d="M13.125 33.75H24.375V35H13.125V33.75Z" fill="black"/>
<path d="M25.625 33.75H26.875V35H25.625V33.75Z" fill="black"/>
</svg>
