<svg width="40" height="40" viewBox="0 0 40 40" fill="none" xmlns="http://www.w3.org/2000/svg">
<g clip-path="url(#clip0)">
<path d="M32.7673 13.1819H14.7935L13.7662 14.2169H5.49963L4.73565 13.1819H1.7079C1.09492 13.1819 0.597961 13.6788 0.597961 14.2918V37.9573H35.0248V15.4395C35.0248 14.1926 34.0141 13.1819 32.7673 13.1819Z" fill="#DFAE91"/>
<path d="M6.63132 36.5013C5.29543 36.5013 4.21248 35.4183 4.21248 34.0824V13.1819H1.7079C1.09492 13.1819 0.597961 13.6788 0.597961 14.2918V38.3034C0.597961 38.9164 1.09492 39.4134 1.7079 39.4134H13.9682L14.6651 38.6H20.8737L21.6545 39.4134H33.9149C34.5278 39.4134 35.0248 38.9164 35.0248 38.3034V36.5012H6.63132V36.5013Z" fill="#D79C7A"/>
<path d="M21.6545 39.4133H13.9683V32.085C13.9683 31.712 14.3439 31.4561 14.6909 31.5926L17.6178 32.7437C17.7422 32.7926 17.8806 32.7926 18.005 32.7437L20.9319 31.5926C21.279 31.4561 21.6545 31.712 21.6545 32.085V39.4133Z" fill="#FBE372"/>
<path d="M32.7673 13.1819H18.5092C19.7468 18.1369 24.2355 21.8188 29.5685 21.8188C31.5439 21.8188 33.4033 21.3134 35.0248 20.4256V15.4395C35.0248 14.1926 34.014 13.1819 32.7673 13.1819Z" fill="#D79C7A"/>
<path d="M29.5685 20.2541C34.9995 20.2541 39.4021 15.8515 39.4021 10.4205C39.4021 4.98957 34.9995 0.586914 29.5685 0.586914C24.1376 0.586914 19.7349 4.98957 19.7349 10.4205C19.7349 15.8515 24.1376 20.2541 29.5685 20.2541Z" fill="#E5827F"/>
<path d="M23.6939 9.81561C23.6939 5.59452 26.3538 1.99509 30.0886 0.600605C29.9164 0.591686 29.743 0.586914 29.5684 0.586914C24.1375 0.586914 19.7348 4.98959 19.7348 10.4205C19.7348 15.8515 24.1375 20.2541 29.5684 20.2541C30.7783 20.2541 31.9368 20.0351 33.0073 19.6355C27.8182 19.3651 23.6939 15.0721 23.6939 9.81561Z" fill="#DE6A66"/>
<path d="M34.7466 15.605C37.6087 12.7428 37.6087 8.10239 34.7466 5.24026C31.8844 2.37813 27.244 2.37813 24.3819 5.24026C21.5198 8.10239 21.5198 12.7428 24.3819 15.605C27.244 18.4671 31.8844 18.4671 34.7466 15.605Z" fill="#F8F7F8"/>
<path d="M27.2298 17.3679C25.0689 15.5641 23.6939 12.8504 23.6939 9.8155C23.6939 7.85576 24.2669 6.03043 25.255 4.49707C23.4273 5.83131 22.2384 7.98931 22.2384 10.4203C22.2385 13.6449 24.3312 16.3896 27.2298 17.3679Z" fill="#EFEDEE"/>
<path d="M14.7935 13.1821V26.1562C14.7935 26.5519 14.4728 26.8726 14.0772 26.8726H5.45199C5.05635 26.8726 4.73566 26.5519 4.73566 26.1562V13.1821H14.7935Z" fill="#F8F7F8"/>
<path d="M32.1638 29.9142H23.9135C23.7298 29.9142 23.5809 29.7653 23.5809 29.5816V24.709C23.5809 24.5253 23.7298 24.3765 23.9135 24.3765H32.1638C32.3475 24.3765 32.4964 24.5253 32.4964 24.709V29.5816C32.4964 29.7653 32.3475 29.9142 32.1638 29.9142Z" fill="#F8F7F8"/>
<path d="M13.9682 36.5012H21.6545V39.4134H13.9682V36.5012Z" fill="#F8D448"/>
<path d="M35.0248 20.7217C34.7006 20.7217 34.438 20.9843 34.438 21.3085V38.3034C34.438 38.5919 34.2033 38.8266 33.9148 38.8266H22.2413V32.085C22.2413 31.7156 22.0591 31.3709 21.7538 31.1629C21.4487 30.955 21.0611 30.9113 20.7171 31.0466L17.8114 32.1894L14.9056 31.0466C14.5619 30.9114 14.1742 30.955 13.869 31.1629C13.5637 31.3709 13.3815 31.7156 13.3815 32.085V38.8266H1.7079C1.41944 38.8266 1.18473 38.5919 1.18473 38.3034V34.8706C1.18473 34.5465 0.922012 34.2838 0.597957 34.2838C0.273902 34.2838 0.0111847 34.5465 0.0111847 34.8706V38.3034C0.0111847 39.239 0.772346 40.0002 1.7079 40.0002H33.9148C34.8505 40.0002 35.6116 39.239 35.6116 38.3034V21.3085C35.6115 20.9844 35.3489 20.7217 35.0248 20.7217ZM14.555 38.8265V32.1696L17.4031 33.2897C17.6665 33.3933 17.9563 33.3933 18.2198 33.2897L21.0677 32.1696V38.8265H14.555Z" fill="black"/>
<path d="M0.597958 32.9566C0.922013 32.9566 1.18473 32.694 1.18473 32.3698V14.2918C1.18473 14.0032 1.41944 13.7685 1.7079 13.7685H4.14887V26.1558C4.14887 26.8744 4.73346 27.4589 5.45198 27.4589H14.0772C14.7958 27.4589 15.3803 26.8744 15.3803 26.1558V13.7685H17.7037C18.0278 13.7685 18.2905 13.5059 18.2905 13.1817C18.2905 12.8576 18.0278 12.595 17.7037 12.595H1.7079C0.772347 12.595 0.0111847 13.3561 0.0111847 14.2918V32.3698C0.0111847 32.694 0.273903 32.9566 0.597958 32.9566ZM14.2067 26.1558C14.2067 26.2273 14.1486 26.2854 14.0772 26.2854H5.45198C5.38055 26.2854 5.32242 26.2273 5.32242 26.1558V13.7685H14.2068V26.1558H14.2067Z" fill="black"/>
<path d="M36.8922 3.0085C36.6617 2.78076 36.2903 2.78287 36.0624 3.01343C35.8347 3.24392 35.8369 3.61538 36.0674 3.84321C37.8394 5.59429 38.8153 7.93004 38.8153 10.4203C38.8153 15.519 34.6671 19.667 29.5685 19.667C24.4698 19.667 20.3217 15.5189 20.3217 10.4203C20.3217 5.32172 24.4698 1.17355 29.5685 1.17355C31.1967 1.17355 32.7976 1.60267 34.1985 2.41461C34.4786 2.57711 34.8378 2.48158 35.0003 2.20118C35.1629 1.92086 35.0673 1.56183 34.7869 1.39934C33.2076 0.483892 31.4031 0 29.5685 0C23.8227 0 19.1481 4.67455 19.1481 10.4204C19.1481 16.1661 23.8227 20.8406 29.5685 20.8406C35.3143 20.8406 39.9888 16.1661 39.9888 10.4204C39.9888 7.61404 38.8891 4.98178 36.8922 3.0085Z" fill="black"/>
<path d="M21.6517 10.4202C21.6517 14.7855 25.2032 18.337 29.5685 18.337C33.9338 18.337 37.4853 14.7854 37.4853 10.4202C37.4853 6.05488 33.9339 2.50342 29.5685 2.50342C25.2032 2.50342 21.6517 6.05488 21.6517 10.4202ZM36.3117 10.4202C36.3117 14.1384 33.2867 17.1634 29.5685 17.1634C25.8503 17.1634 22.8252 14.1384 22.8252 10.4202C22.8252 6.70197 25.8503 3.67696 29.5685 3.67696C33.2867 3.67696 36.3117 6.70197 36.3117 10.4202Z" fill="black"/>
<path d="M30.2268 12.1265H32.2131V13.0683C32.2131 13.3925 32.4758 13.6551 32.7999 13.6551C33.124 13.6551 33.3867 13.3925 33.3867 13.0683V12.1265H33.4742C33.7983 12.1265 34.061 11.8639 34.061 11.5397C34.061 11.2156 33.7983 10.953 33.4742 10.953H33.3867V8.24505C33.3867 7.82203 33.1117 7.46543 32.7026 7.35777C32.2935 7.2502 31.8787 7.42521 31.6706 7.79355L29.716 11.251C29.6134 11.4326 29.6149 11.6551 29.72 11.8354C29.8251 12.0157 30.0181 12.1265 30.2268 12.1265ZM32.2131 9.21839V10.953H31.2326L32.2131 9.21839Z" fill="black"/>
<path d="M28.9131 12.6531H27.4395L28.5922 10.949C28.9209 10.4787 29.1352 10.0342 29.2295 9.62766C29.234 9.60849 29.2374 9.58909 29.2399 9.56953L29.2654 9.36971C29.2685 9.34507 29.2702 9.32019 29.2702 9.29538C29.2702 8.2431 28.4141 7.38696 27.3618 7.38696C26.4518 7.38696 25.6643 8.03421 25.4891 8.92611C25.4267 9.24406 25.6339 9.55255 25.9518 9.61498C26.2705 9.67773 26.5782 9.47024 26.6407 9.15229C26.708 8.80938 27.0113 8.56059 27.3618 8.56059C27.7562 8.56059 28.0791 8.87306 28.0959 9.26346L28.0799 9.38888C28.0155 9.64393 27.8636 9.9435 27.628 10.2801C27.6263 10.2826 27.6245 10.2852 27.6228 10.2878L25.9397 12.7761C25.7997 12.983 25.7854 13.2485 25.9025 13.4691C26.0196 13.6897 26.2475 13.8268 26.4973 13.8268H28.9131C29.2372 13.8268 29.4999 13.5641 29.4999 13.24C29.4999 12.9159 29.2372 12.6531 28.9131 12.6531Z" fill="black"/>
<path d="M6.97015 16.3469H12.559C12.883 16.3469 13.1457 16.0842 13.1457 15.7601C13.1457 15.436 12.883 15.1733 12.559 15.1733H6.97015C6.64609 15.1733 6.38338 15.436 6.38338 15.7601C6.38338 16.0842 6.64609 16.3469 6.97015 16.3469Z" fill="black"/>
<path d="M6.97015 19.081H12.559C12.883 19.081 13.1457 18.8184 13.1457 18.4942C13.1457 18.1701 12.883 17.9075 12.559 17.9075H6.97015C6.64609 17.9075 6.38338 18.1701 6.38338 18.4942C6.38338 18.8184 6.64609 19.081 6.97015 19.081Z" fill="black"/>
<path d="M6.97015 21.8149H12.559C12.883 21.8149 13.1457 21.5523 13.1457 21.2281C13.1457 20.904 12.883 20.6414 12.559 20.6414H6.97015C6.64609 20.6414 6.38338 20.904 6.38338 21.2281C6.38338 21.5523 6.64609 21.8149 6.97015 21.8149Z" fill="black"/>
<path d="M6.97015 24.5488H12.559C12.883 24.5488 13.1457 24.2862 13.1457 23.962C13.1457 23.6379 12.883 23.3752 12.559 23.3752H6.97015C6.64609 23.3752 6.38338 23.6379 6.38338 23.962C6.38338 24.2862 6.64609 24.5488 6.97015 24.5488Z" fill="black"/>
<path d="M28.0386 24.9629C28.3627 24.9629 28.6254 24.7002 28.6254 24.3761C28.6254 24.0519 28.3627 23.7893 28.0386 23.7893H23.9134C23.4065 23.7893 22.994 24.2017 22.994 24.7087V29.5813C22.994 30.0882 23.4064 30.5007 23.9134 30.5007H32.1638C32.6707 30.5007 33.0831 30.0883 33.0831 29.5813V24.7087C33.0831 24.2018 32.6707 23.7893 32.1638 23.7893H30.5392C30.2151 23.7893 29.9524 24.0519 29.9524 24.3761C29.9524 24.7002 30.2151 24.9629 30.5392 24.9629H31.9096V29.3271H24.1677V24.9629H28.0386Z" fill="black"/>
</g>
<defs>
<clipPath id="clip0">
<rect width="40" height="40" fill="white"/>
</clipPath>
</defs>
</svg>
